# xmcd
#
# Track frame offsets:
#	150
#	13832
#	25430
#	36231
#	45497
#	55722
#	65633
#	75811
#	85239
#	95834
#	104593
#	115499
#	125297
#	135524
#	145833
#	156537
#	168430
#	181073
#	190620
#	200294
#	212680
#	225097
#	236985
#	248164
#	260085
#	272705
#	285185
#	294607
#	306357
#	317918
#
# Disc length: 4392 seconds
#
# Revision: 0
# Processed by: cddbd v1.5.2PL0 Copyright (c) Steve Scherf et al.
# Submitted via: EasyCDDAExtractor 16.1.0.1
#
DISCID=af11261e
DTITLE=Skeeter Davis - The early years
DYEAR=1900
DGENRE=Country
TTITLE0=I forgot more than you'll ever know
TTITLE1=Rock-a-bye boogie
TTITLE2=He left his heart with me
TTITLE3=Don't let your lips say yes
TTITLE4=Lost to a geisha girl
TTITLE5=I'm going steady with a heartache
TTITLE6=Walk softly darling
TTITLE7=I need you all the time
TTITLE8=Wave bye bye
TTITLE9=I ain't a - talkin'
TTITLE10=Slave
TTITLE11=The devil's doll
TTITLE12=Set him free
TTITLE13=Homebreaker
TTITLE14=Give me death
TTITLE15=Wishfull thinking
TTITLE16=Just when I needed you
TTITLE17=Am I that easy to forget
TTITLE18=Have you seen this man
TTITLE19=Your cheatin' heart
TTITLE20=The one you slip around with
TTITLE21=Chained to a memory
TTITLE22=Standing in the shadows
TTITLE23=Under your spell again
TTITLE24=Let those brown eyes smile at me
TTITLE25=(I can't help you) I'm falling too
TTITLE26=No, never
TTITLE27=Someone I'd like to forget
TTITLE28=My last date (with you)
TTITLE29=Unnecessary Flowers
EXTD=
EXTT0=
EXTT1=
EXTT2=
EXTT3=
EXTT4=
EXTT5=
EXTT6=
EXTT7=
EXTT8=
EXTT9=
EXTT10=
EXTT11=
EXTT12=
EXTT13=
EXTT14=
EXTT15=
EXTT16=
EXTT17=
EXTT18=
EXTT19=
EXTT20=
EXTT21=
EXTT22=
EXTT23=
EXTT24=
EXTT25=
EXTT26=
EXTT27=
EXTT28=
EXTT29=
PLAYORDER=
